<svg width="129" height="127" viewBox="0 0 129 127" fill="none" xmlns="http://www.w3.org/2000/svg">
<g id="&#208;&#160;&#208;&#181;&#209;&#129;&#209;&#131;&#209;&#128;&#209;&#129; 1 1" clip-path="url(#clip0_1_134)">
<g id="Group">
<g id="&#208;&#161;&#208;&#187;&#208;&#190;&#208;&#185; 2">
<g id="&#229;&#155;&#190;&#229;&#177;&#130; 1">
<path id="Vector" fill-rule="evenodd" clip-rule="evenodd" d="M64.4122 22.2973C75.2833 22.2973 85.7091 26.6476 93.3962 34.3912C101.083 42.1348 105.402 52.6374 105.402 63.5885C105.437 68.9987 104.393 74.3609 102.33 79.3566C100.268 84.3522 97.2306 88.8795 93.3976 92.6693C89.6149 96.5459 85.1036 99.6248 80.1271 101.726C75.1505 103.828 69.8083 104.91 64.4122 104.909C53.5157 104.877 43.0703 100.522 35.3389 92.7873C27.7128 85.0576 23.4295 74.6044 23.4226 63.7065C23.4226 52.7554 27.7411 42.2528 35.4282 34.5092C43.1152 26.7656 53.5411 22.4153 64.4122 22.4153V22.2973ZM64.4122 22.9462C53.7103 23.016 43.4678 27.3356 35.9085 34.967C28.3493 42.5985 24.0835 52.9258 24.0375 63.7065C24.0305 69.0513 25.0895 74.343 27.1516 79.2676C29.2137 84.1921 32.2368 88.6493 36.0415 92.3744C39.759 96.1606 44.1936 99.1559 49.0823 101.182C53.9709 103.209 59.2139 104.226 64.5 104.172C75.1594 104.164 85.3813 99.9012 92.9269 92.3166C100.472 84.7321 104.727 74.4443 104.758 63.7065C104.781 58.3572 103.754 53.056 101.736 48.1079C99.7181 43.1598 96.749 38.6624 92.9995 34.8743C89.25 31.0863 84.7941 28.0823 79.888 26.0352C74.9819 23.9882 69.7225 22.9383 64.4122 22.9462Z" fill="#C6C5C0"/>
<path id="Vector_2" fill-rule="evenodd" clip-rule="evenodd" d="M64.4122 0.412964C78.1664 0.431608 91.5358 4.98991 102.474 13.3902L109.442 6.3707L121.68 18.6991L114.888 25.8955C123.299 37.298 127.648 51.2243 127.231 65.4241C126.815 79.6238 121.657 93.2672 112.592 104.149C103.527 115.032 91.0847 122.517 77.2751 125.395C63.4655 128.273 49.0958 126.377 36.4883 120.012C23.8809 113.647 13.7722 103.186 7.79607 90.3187C1.81991 77.4515 0.3254 62.9302 3.55407 49.1016C6.78275 35.273 14.546 22.9451 25.5891 14.1102C36.6322 5.2753 50.3101 0.449596 64.4122 0.412964ZM64.4122 15.1598C54.9531 15.1773 45.7113 18.0174 37.8532 23.3216C29.9952 28.6257 23.8732 36.1562 20.26 44.9623C16.6469 53.7684 15.7046 63.4555 17.5522 72.8006C19.3997 82.1457 23.9541 90.73 30.6406 97.4699C37.3272 104.21 45.846 108.803 55.1217 110.67C64.3974 112.537 74.0143 111.593 82.7583 107.959C91.5023 104.325 98.9814 98.1621 104.252 90.2495C109.522 82.3368 112.347 73.0287 112.37 63.5001C112.347 50.7026 107.284 38.4373 98.2924 29.3964C89.3011 20.3555 77.1162 15.2778 64.4122 15.2778V15.1598Z" fill="url(#paint0_radial_1_134)"/>
<path id="Vector_3" fill-rule="evenodd" clip-rule="evenodd" d="M64.4122 15.0713C70.7619 15.0519 77.053 16.296 82.9242 18.7322C88.7954 21.1684 94.1311 24.7487 98.6252 29.2676C103.119 33.7865 106.683 39.155 109.112 45.065C111.541 50.9749 112.788 57.31 112.78 63.7065C112.788 70.103 111.541 76.4381 109.112 82.3481C106.683 88.258 103.119 93.6266 98.6252 98.1455C94.1311 102.664 88.7954 106.245 82.9242 108.681C77.053 111.117 70.7619 112.361 64.4122 112.342C51.6228 112.318 39.3652 107.184 30.3299 98.0655C21.2947 88.9472 16.2201 76.59 16.2202 63.7065C16.2091 57.318 17.4529 50.9905 19.8799 45.0883C22.307 39.1862 25.8692 33.8261 30.3616 29.3168C34.8089 24.7768 40.112 21.178 45.9594 18.7316C51.8068 16.2853 58.0806 15.0408 64.4122 15.0713ZM64.4122 15.7202C51.7705 15.7026 39.6391 20.7416 30.6836 29.7297C26.2632 34.1904 22.7655 39.4905 20.3933 45.3228C18.0212 51.1551 16.8216 57.4038 16.8643 63.7065C16.8468 76.4412 21.849 88.6619 30.7715 97.6833C39.7583 106.569 51.8198 111.592 64.4122 111.693C77.0363 111.622 89.1356 106.596 98.1407 97.6833C102.575 93.2236 106.093 87.9275 108.494 82.0976C110.895 76.2677 112.133 70.0183 112.136 63.7065C112.155 57.3919 110.933 51.1359 108.541 45.2994C106.148 39.4628 102.632 34.1611 98.1957 29.7002C93.7591 25.2392 88.4898 21.7071 82.6914 19.3077C76.8931 16.9083 70.6806 15.689 64.4122 15.7202Z" fill="url(#paint1_linear_1_134)"/>
<path id="Vector_4" fill-rule="evenodd" clip-rule="evenodd" d="M64.4122 1.92039e-06C78.3308 -0.0437312 91.8673 4.58466 102.884 13.1542L102.65 13.3902C90.1288 3.76125 74.4497 -0.727501 58.7734 0.828909C43.0971 2.38532 28.5895 9.87113 18.1757 21.7771C7.76196 33.683 2.21652 49.1235 2.65747 64.9855C3.09843 80.8475 9.49298 95.9512 20.5519 107.251C31.6108 118.552 46.5114 125.208 62.2497 125.878C77.9879 126.548 93.3931 121.183 105.359 110.863C117.325 100.543 124.963 86.037 126.731 70.2691C128.499 54.5012 124.267 38.6443 114.888 25.8955L115.093 25.689C123.193 36.6042 127.559 49.872 127.536 63.5C127.534 71.8633 125.893 80.144 122.707 87.8672C119.522 95.5905 114.855 102.605 108.974 108.507C103.136 114.415 96.1896 119.093 88.5389 122.268C80.8881 125.443 72.6865 127.051 64.4122 127C47.7689 127.004 31.8046 120.353 20.0263 108.507C8.18049 96.5636 1.50727 80.3834 1.4639 63.5C1.55592 46.7026 8.21473 30.6183 19.9974 18.7323C31.7802 6.84636 47.7377 0.116127 64.4122 1.92039e-06Z" fill="url(#paint2_radial_1_134)"/>
<path id="Vector_5" fill-rule="evenodd" clip-rule="evenodd" d="M64.4122 15.5138C73.8779 15.4962 83.136 18.3078 91.0149 23.5926C98.8938 28.8775 105.039 36.398 108.674 45.2025C112.308 54.0071 113.268 63.6998 111.432 73.0541C109.596 82.4084 105.047 91.0038 98.3595 97.7525C91.6724 104.501 83.1482 109.1 73.8656 110.967C64.583 112.833 54.9594 111.884 46.2125 108.239C37.4657 104.594 29.9888 98.4173 24.7281 90.4901C19.4674 82.563 16.6594 73.2419 16.6593 63.7065C16.6516 50.9379 21.6774 38.6888 30.6319 29.6517C39.5865 20.6147 51.7369 15.5294 64.4122 15.5138ZM64.4122 22.2973C56.3052 22.2973 48.3803 24.719 41.6396 29.2561C34.8989 33.7933 29.6452 40.2421 26.5428 47.7871C23.4404 55.3321 22.6286 63.6343 24.2102 71.644C25.7918 79.6538 29.6957 87.0111 35.4282 92.7858C41.1607 98.5605 48.4643 102.493 56.4155 104.086C64.3667 105.68 72.6083 104.862 80.0982 101.737C87.5881 98.6114 93.9898 93.319 98.4937 86.5287C102.998 79.7384 105.402 71.7552 105.402 63.5885C105.402 52.6374 101.083 42.1348 93.3962 34.3912C85.7091 26.6476 75.2833 22.2973 64.4122 22.2973Z" fill="url(#paint3_radial_1_134)"/>
<path id="Vector_6" style="mix-blend-mode:multiply" opacity="0.67" fill-rule="evenodd" clip-rule="evenodd" d="M7.29029 78.8073C7.27465 78.8552 7.27465 78.9069 7.29029 78.9548H7.61235V78.4828C7.48359 78.4969 7.36161 78.5481 7.26101 78.6303C7.25552 78.6909 7.2656 78.7518 7.29029 78.8073Z" fill="url(#paint4_linear_1_134)"/>
<path id="Vector_7" style="mix-blend-mode:multiply" opacity="0.67" d="M16.5129 77.4506H16.2202V77.6865H16.5129V77.4506Z" fill="url(#paint5_linear_1_134)"/>
<path id="Vector_8" style="mix-blend-mode:multiply" opacity="0.67" d="M16.5129 77.7455H16.2202V78.0109H16.5129V77.7455Z" fill="url(#paint6_linear_1_134)"/>
<path id="Vector_9" style="mix-blend-mode:multiply" opacity="0.67" fill-rule="evenodd" clip-rule="evenodd" d="M10.2767 78.8073C10.2586 78.8548 10.2586 78.9073 10.2767 78.9547C10.3247 78.9672 10.375 78.9672 10.4231 78.9547V78.4828C10.2943 78.4969 10.1723 78.5481 10.0717 78.6303C10.0911 78.673 10.1195 78.7109 10.1549 78.7415C10.1903 78.772 10.2318 78.7945 10.2767 78.8073Z" fill="url(#paint7_linear_1_134)"/>
<path id="Vector_10" style="mix-blend-mode:multiply" opacity="0.67" d="M18.3282 77.8929H17.5084V78.2764H18.3282V77.8929Z" fill="url(#paint8_linear_1_134)"/>
<path id="Vector_11" style="mix-blend-mode:multiply" opacity="0.67" d="M3.24988 76.6837H25.677C26.598 79.3825 27.8054 81.9733 29.2782 84.4111H5.44575C4.54641 81.8866 3.81287 79.3052 3.24988 76.6837Z" fill="url(#paint9_linear_1_134)"/>
<path id="Vector_12" style="mix-blend-mode:multiply" opacity="0.67" d="M18.3282 77.5095H17.5084V77.8634H18.3282V77.5095Z" fill="url(#paint10_linear_1_134)"/>
<path id="Vector_13" style="mix-blend-mode:multiply" opacity="0.86" fill-rule="evenodd" clip-rule="evenodd" d="M103.382 76.6837H125.896C125.334 79.3052 124.6 81.8866 123.701 84.4111H99.8974C101.317 81.9616 102.485 79.3724 103.382 76.6837Z" fill="url(#paint11_linear_1_134)"/>
<path id="Vector_14" fill-rule="evenodd" clip-rule="evenodd" d="M126.892 47.5734C128.35 52.7527 129.06 58.1167 129 63.5C128.959 69.0806 128.252 74.636 126.892 80.046H2.31299V79.8396H126.687C128.157 74.4505 128.876 68.882 128.824 63.2936C128.859 57.9913 128.209 52.7071 126.892 47.5734Z" fill="#1D1D1B"/>
<path id="Vector_15" fill-rule="evenodd" clip-rule="evenodd" d="M2.10803 47.3669H126.892C128.187 52.5745 128.826 57.9253 128.795 63.2936C128.856 68.8806 128.147 74.4491 126.687 79.8395H2.31298C0.799351 74.4557 0.0211962 68.8891 0 63.2936C0.0506353 57.9176 0.758648 52.5684 2.10803 47.3669Z" fill="url(#paint12_radial_1_134)"/>
<path id="Vector_16" fill-rule="evenodd" clip-rule="evenodd" d="M112.136 2.1236L126.072 16.1331L115.737 26.5444L116.352 27.3997L108.974 33.328L106.661 34.1833L121.856 18.6991L109.618 6.37069L94.4517 21.6484L95.0665 19.5249L112.136 2.1236Z" fill="url(#paint13_linear_1_134)"/>
<path id="Vector_17" fill-rule="evenodd" clip-rule="evenodd" d="M98.2285 0.648865C110.394 7.29224 120.42 17.3004 127.126 29.4937V0.648865H98.2285Z" fill="url(#paint14_radial_1_134)"/>
<path id="Vector_18" d="M98.2285 0.648865C110.394 7.29224 120.42 17.3004 127.126 29.4937" stroke="#B2B1A7" stroke-width="0.34" stroke-linecap="round"/>
<path id="Vector_19" d="M98.2285 0.648865C110.333 7.2935 120.283 17.307 126.892 29.4937" stroke="#CCCBC3" stroke-width="0.24" stroke-linecap="round"/>
<path id="Vector_20" d="M98.0236 0.648865C110.246 7.3128 120.277 17.4178 126.892 29.7297" stroke="#E7E6E1" stroke-width="0.13" stroke-linecap="round"/>
<path id="Vector_21" d="M98.0236 0.648865C110.137 7.38914 120.082 17.4798 126.687 29.7297" stroke="white" stroke-width="0.03" stroke-linecap="round"/>
<path id="Vector_22" fill-rule="evenodd" clip-rule="evenodd" d="M127.126 0C127.331 0 127.536 0.206456 127.536 0.648862H97.8187C97.8187 0.206456 98.0236 0 98.2286 0H127.126Z" fill="url(#paint15_linear_1_134)"/>
<path id="Vector_23" fill-rule="evenodd" clip-rule="evenodd" d="M127.536 29.4937C127.536 29.9066 127.331 30.1131 127.126 30.1131L126.892 29.7002V0H127.126C127.331 0 127.536 0.206456 127.536 0.648862V29.4937Z" fill="url(#paint16_linear_1_134)"/>
<path id="Vector_24" fill-rule="evenodd" clip-rule="evenodd" d="M109.618 71.4338C103.996 71.4338 99.3997 67.9831 99.3997 63.7065C99.3997 59.4299 103.996 56.0381 109.618 56.0381C115.239 56.0381 120.041 59.4299 120.041 63.7065C120.041 67.9831 115.356 71.4338 109.618 71.4338ZM109.618 58.2796C107.598 58.2796 106.134 60.5506 106.134 63.7065C106.134 66.8623 107.627 68.9269 109.618 68.9269C111.609 68.9269 113.102 66.5379 113.102 63.7065C113.102 60.8751 111.55 58.2796 109.618 58.2796ZM45.5277 71.4338C39.9063 71.4338 35.3389 67.9831 35.3389 63.7065C35.3389 59.4299 39.9941 56.1856 45.5277 56.1856C51.0613 56.1856 55.9508 59.5478 55.9508 63.7065C55.9508 67.8651 51.2662 71.4338 45.5277 71.4338ZM45.5277 58.4861C43.5368 58.4861 42.0436 60.7276 42.0436 63.7065C42.0436 66.6853 43.5368 68.9269 45.5277 68.9269C47.5186 68.9269 49.0411 66.5379 49.0411 63.7065C49.0411 60.8751 47.4308 58.4861 45.5277 58.4861ZM83.0624 71.0209L76.4455 58.663H73.1956V56.6575H87.6298V58.663H83.97L89.0937 67.2457L93.3684 58.5451H90.909V56.5395H100.922V58.5451H97.438L90.9675 70.8734L83.0624 71.0209ZM56.712 71.0209V68.6024H60.1668V58.6925H56.8877V56.6869H70.2385V58.6925H66.7837V68.6024H70.2971C71.4144 68.5961 72.4867 68.1582 73.2929 67.379C74.0991 66.5997 74.5778 65.5386 74.6303 64.4143H76.8261V71.1684L56.712 71.0209ZM18.9723 71.0209L12.3554 58.663H9.07626V56.6575H23.4812V58.663H19.8214L24.9451 67.2457L29.4247 58.5451H26.7603V56.5395H36.7735V58.5451H33.3187L26.8189 71.0209H18.9723Z" fill="white"/>
<path id="Vector_25" d="M109.618 56.0381C115.298 56.0381 120.041 59.4594 120.041 63.7065C120.041 67.9536 115.386 71.3453 109.706 71.3453C104.026 71.3453 99.5461 67.8356 99.5461 63.7065C99.5461 59.5773 104.143 56.0381 109.618 56.0381ZM109.618 68.9858C111.521 68.9858 113.19 66.6558 113.19 63.677C113.19 60.6981 111.521 58.1616 109.618 58.1616C107.715 58.1616 106.046 60.4916 106.046 63.677C106.046 66.8623 107.51 68.9858 109.618 68.9858ZM45.5277 56.274C51.2369 56.274 55.8629 59.6658 55.8629 63.7065C55.8629 67.7471 51.2369 71.3453 45.5277 71.3453C39.8184 71.3453 35.4267 67.8356 35.4267 63.7065C35.4267 59.5773 40.0527 56.274 45.5277 56.274ZM45.5277 69.0153C47.4308 69.0153 49.1289 66.6853 49.1289 63.7065C49.1289 60.7276 47.4308 58.3976 45.5277 58.3976C43.6246 58.3976 41.9557 60.7276 41.9557 63.7065C41.9557 66.6853 43.4197 69.0153 45.5277 69.0153ZM100.776 56.6869V58.604H97.3795L90.7626 70.9324H83.0624L76.5334 58.604H73.1956V56.6869H87.542V58.604H83.9115L88.9473 67.3047L93.3976 58.604H90.7626V56.6869H100.688H100.776ZM69.8872 56.6869V58.604H66.608V68.6024H70.2678C71.4057 68.6036 72.5002 68.1629 73.3237 67.3718C74.1471 66.5808 74.6361 65.5003 74.6888 64.3553H76.7969V70.9324H56.712V68.6024H60.079V58.604H56.712V56.6869H69.975H69.8872ZM36.6857 56.6869V58.604H33.3187L26.7603 70.9324H18.9723L12.4433 58.604H9.07626V56.6869H23.4226V58.604H19.8214L24.8865 67.3047L29.5125 58.604H26.7603V56.6869H36.6857ZM109.618 56.0381C103.938 56.0381 99.3118 59.5478 99.3118 63.8539C99.3118 68.16 103.938 71.6698 109.618 71.6698C115.298 71.6698 120.041 68.0125 120.041 63.7065C120.041 59.4004 115.415 56.0381 109.618 56.0381ZM109.618 68.9858C107.685 68.9858 106.222 66.7738 106.222 63.8539C106.222 60.934 107.656 58.5156 109.618 58.5156C111.579 58.5156 113.014 60.9046 113.014 63.8539C113.014 66.8033 111.462 68.9858 109.618 68.9858ZM45.5277 56.0381C39.9648 56.0381 35.1339 59.5773 35.1339 63.7065C35.1339 67.8356 39.7306 71.5223 45.4106 71.5223C51.0906 71.5223 55.9215 68.0125 55.9215 63.7065C55.9215 59.4004 51.3248 56.0381 45.5277 56.0381ZM45.5277 68.7794C43.5953 68.7794 42.1314 66.5673 42.1314 63.6475C42.1314 60.7276 43.5953 58.5156 45.5277 58.5156C47.4601 58.5156 48.9532 60.8751 48.9532 63.6475C48.9532 66.4199 47.3722 68.7794 45.5277 68.7794ZM100.951 56.451H90.7626V58.722H93.1927L88.9473 66.9508L84.2043 58.781H87.6591V56.51H73.02V58.781H76.4162L82.916 71.0209H90.9383L97.4088 58.781H100.864V56.51L100.951 56.451ZM70.2678 56.51H56.5363V58.781H59.9033V68.4255H56.5363V71.1094H77.0311V64.1784H74.5717C74.5679 64.7425 74.4533 65.3003 74.2346 65.8196C74.0159 66.3389 73.6973 66.8095 73.2973 67.2043C72.8972 67.5991 72.4236 67.9102 71.9037 68.1198C71.3837 68.3294 70.8278 68.4333 70.2678 68.4255H66.7837V58.781H70.2678V56.51ZM36.9784 56.51H26.5847V58.781H29.2783L24.8572 66.9508L20.1142 58.781H23.569V56.51H8.78348V58.781H12.3261L18.8259 71.0209H26.8774L33.3479 58.781H36.8028V56.51H36.9784Z" fill="#323230"/>
<path id="Vector_26" d="M2.34226 47.6029C0.996939 52.8052 0.288993 58.1539 0.234222 63.5295C0.234222 63.9719 0.380614 66.6853 0.380614 67.1572L0.761231 71.2569C0.761231 70.9029 0.585562 64.2374 0.585562 63.8834C0.716902 58.5659 1.50368 53.2854 2.92782 48.1633L46.8452 47.9568L65.9054 47.6029H2.34226Z" fill="url(#paint17_linear_1_134)"/>
</g>
</g>
</g>
</g>
<defs>
<radialGradient id="paint0_radial_1_134" cx="0" cy="0" r="1" gradientUnits="userSpaceOnUse" gradientTransform="translate(19.7335 51.0537) scale(130.786 131.748)">
<stop stop-color="white"/>
<stop offset="0.04" stop-color="#FDFCFC"/>
<stop offset="0.22" stop-color="#FCFBFA"/>
<stop offset="0.23" stop-color="#F9F8F7"/>
<stop offset="0.38" stop-color="#B7B6B5"/>
<stop offset="0.5" stop-color="#888784"/>
<stop offset="0.59" stop-color="#6A6966"/>
<stop offset="0.65" stop-color="#5F5E5B"/>
<stop offset="0.73" stop-color="#555451"/>
<stop offset="0.87" stop-color="#3A3935"/>
<stop offset="1" stop-color="#1D1C18"/>
</radialGradient>
<linearGradient id="paint1_linear_1_134" x1="39.7892" y1="55.1238" x2="86.7653" y2="71.163" gradientUnits="userSpaceOnUse">
<stop stop-color="#E4E2DC"/>
<stop offset="1" stop-color="white"/>
</linearGradient>
<radialGradient id="paint2_radial_1_134" cx="0" cy="0" r="1" gradientUnits="userSpaceOnUse" gradientTransform="translate(101.713 104.142) scale(143.522 144.578)">
<stop stop-color="#C6C6C1"/>
<stop offset="1" stop-color="#87867E"/>
</radialGradient>
<radialGradient id="paint3_radial_1_134" cx="0" cy="0" r="1" gradientUnits="userSpaceOnUse" gradientTransform="translate(87.0735 86.4462) scale(100.776 101.517)">
<stop stop-color="white"/>
<stop offset="0.21" stop-color="#F2F2F2"/>
<stop offset="0.3" stop-color="#E7E7E7"/>
<stop offset="0.38" stop-color="#C2C1C0"/>
<stop offset="0.45" stop-color="#A4A3A2"/>
<stop offset="0.51" stop-color="#8F8E8C"/>
<stop offset="0.58" stop-color="#82817E"/>
<stop offset="0.64" stop-color="#7E7D7A"/>
<stop offset="0.75" stop-color="#565552"/>
<stop offset="0.85" stop-color="#373632"/>
<stop offset="0.94" stop-color="#24231F"/>
<stop offset="1" stop-color="#1D1C18"/>
</radialGradient>
<linearGradient id="paint4_linear_1_134" x1="7.52451" y1="79.0727" x2="7.52451" y2="78.7188" gradientUnits="userSpaceOnUse">
<stop stop-color="white"/>
<stop offset="0.17" stop-color="#FCFBFA"/>
<stop offset="0.43" stop-color="#BCBCB6"/>
<stop offset="0.52" stop-color="#90908A"/>
<stop offset="0.62" stop-color="#696964"/>
<stop offset="0.72" stop-color="#4B4A46"/>
<stop offset="0.82" stop-color="#353530"/>
<stop offset="0.91" stop-color="#282723"/>
<stop offset="1" stop-color="#24231F"/>
</linearGradient>
<linearGradient id="paint5_linear_1_134" x1="17.8568" y1="83.668" x2="17.8568" y2="83.6562" gradientUnits="userSpaceOnUse">
<stop stop-color="white"/>
<stop offset="0.17" stop-color="#FCFBFA"/>
<stop offset="0.43" stop-color="#BCBCB6"/>
<stop offset="0.52" stop-color="#90908A"/>
<stop offset="0.62" stop-color="#696964"/>
<stop offset="0.72" stop-color="#4B4A46"/>
<stop offset="0.82" stop-color="#353530"/>
<stop offset="0.91" stop-color="#282723"/>
<stop offset="1" stop-color="#24231F"/>
</linearGradient>
<linearGradient id="paint6_linear_1_134" x1="17.8568" y1="84.7691" x2="17.8568" y2="84.7531" gradientUnits="userSpaceOnUse">
<stop stop-color="white"/>
<stop offset="0.17" stop-color="#FCFBFA"/>
<stop offset="0.43" stop-color="#BCBCB6"/>
<stop offset="0.52" stop-color="#90908A"/>
<stop offset="0.62" stop-color="#696964"/>
<stop offset="0.72" stop-color="#4B4A46"/>
<stop offset="0.82" stop-color="#353530"/>
<stop offset="0.91" stop-color="#282723"/>
<stop offset="1" stop-color="#24231F"/>
</linearGradient>
<linearGradient id="paint7_linear_1_134" x1="11.333" y1="91.3855" x2="11.333" y2="91.3277" gradientUnits="userSpaceOnUse">
<stop stop-color="white"/>
<stop offset="0.17" stop-color="#FCFBFA"/>
<stop offset="0.43" stop-color="#BCBCB6"/>
<stop offset="0.52" stop-color="#90908A"/>
<stop offset="0.62" stop-color="#696964"/>
<stop offset="0.72" stop-color="#4B4A46"/>
<stop offset="0.82" stop-color="#353530"/>
<stop offset="0.91" stop-color="#282723"/>
<stop offset="1" stop-color="#24231F"/>
</linearGradient>
<linearGradient id="paint8_linear_1_134" x1="22.5255" y1="88.0726" x2="22.5255" y2="88.0419" gradientUnits="userSpaceOnUse">
<stop stop-color="white"/>
<stop offset="0.17" stop-color="#FCFBFA"/>
<stop offset="0.43" stop-color="#BCBCB6"/>
<stop offset="0.52" stop-color="#90908A"/>
<stop offset="0.62" stop-color="#696964"/>
<stop offset="0.72" stop-color="#4B4A46"/>
<stop offset="0.82" stop-color="#353530"/>
<stop offset="0.91" stop-color="#282723"/>
<stop offset="1" stop-color="#24231F"/>
</linearGradient>
<linearGradient id="paint9_linear_1_134" x1="147.187" y1="298.536" x2="147.187" y2="286.636" gradientUnits="userSpaceOnUse">
<stop stop-color="white"/>
<stop offset="0.17" stop-color="#FCFBFA"/>
<stop offset="0.43" stop-color="#BCBCB6"/>
<stop offset="0.52" stop-color="#90908A"/>
<stop offset="0.62" stop-color="#696964"/>
<stop offset="0.72" stop-color="#4B4A46"/>
<stop offset="0.82" stop-color="#353530"/>
<stop offset="0.91" stop-color="#282723"/>
<stop offset="1" stop-color="#24231F"/>
</linearGradient>
<linearGradient id="paint10_linear_1_134" x1="22.5255" y1="86.853" x2="22.5255" y2="86.8282" gradientUnits="userSpaceOnUse">
<stop stop-color="white"/>
<stop offset="0.17" stop-color="#FCFBFA"/>
<stop offset="0.43" stop-color="#BCBCB6"/>
<stop offset="0.52" stop-color="#90908A"/>
<stop offset="0.62" stop-color="#696964"/>
<stop offset="0.72" stop-color="#4B4A46"/>
<stop offset="0.82" stop-color="#353530"/>
<stop offset="0.91" stop-color="#282723"/>
<stop offset="1" stop-color="#24231F"/>
</linearGradient>
<linearGradient id="paint11_linear_1_134" x1="-437.41" y1="298.536" x2="-437.41" y2="286.636" gradientUnits="userSpaceOnUse">
<stop stop-color="white"/>
<stop offset="0.17" stop-color="#FCFBFA"/>
<stop offset="0.43" stop-color="#BCBCB6"/>
<stop offset="0.52" stop-color="#90908A"/>
<stop offset="0.62" stop-color="#696964"/>
<stop offset="0.72" stop-color="#4B4A46"/>
<stop offset="0.82" stop-color="#353530"/>
<stop offset="0.91" stop-color="#282723"/>
<stop offset="1" stop-color="#24231F"/>
</linearGradient>
<radialGradient id="paint12_radial_1_134" cx="0" cy="0" r="1" gradientUnits="userSpaceOnUse" gradientTransform="translate(5.82637 51.0537) scale(81.3643 81.9631)">
<stop stop-color="#0069B4"/>
<stop offset="0.01" stop-color="#0068B3"/>
<stop offset="0.13" stop-color="#0061A6"/>
<stop offset="0.24" stop-color="#005EA1"/>
<stop offset="0.49" stop-color="#005490"/>
<stop offset="0.84" stop-color="#004273"/>
<stop offset="0.96" stop-color="#004072"/>
<stop offset="1" stop-color="#003B6E"/>
</radialGradient>
<linearGradient id="paint13_linear_1_134" x1="124.813" y1="33.6819" x2="92.9016" y2="1.97417" gradientUnits="userSpaceOnUse">
<stop offset="0.01" stop-color="#20200B"/>
<stop offset="0.65" stop-color="#43423E"/>
<stop offset="0.66" stop-color="#64635F"/>
<stop offset="0.67" stop-color="#A6A5A2"/>
<stop offset="0.68" stop-color="#F2F2EF"/>
<stop offset="0.69" stop-color="#6F6E68"/>
<stop offset="0.71" stop-color="#585752"/>
<stop offset="0.74" stop-color="#42423E"/>
<stop offset="0.77" stop-color="#31312E"/>
<stop offset="0.8" stop-color="#262623"/>
<stop offset="0.85" stop-color="#1F1F1D"/>
<stop offset="1" stop-color="#1D1D1B"/>
</linearGradient>
<radialGradient id="paint14_radial_1_134" cx="0" cy="0" r="1" gradientUnits="userSpaceOnUse" gradientTransform="translate(122.207 3.86368) scale(33.9921 34.2422)">
<stop stop-color="#55544F"/>
<stop offset="1" stop-color="#4F4F4A"/>
</radialGradient>
<linearGradient id="paint15_linear_1_134" x1="97.8187" y1="0.324431" x2="127.536" y2="0.324431" gradientUnits="userSpaceOnUse">
<stop stop-color="#5C5C5B"/>
<stop offset="0.07" stop-color="#51514F"/>
<stop offset="0.25" stop-color="#3D3D3A"/>
<stop offset="0.44" stop-color="#2F2E2B"/>
<stop offset="0.67" stop-color="#272622"/>
<stop offset="1" stop-color="#24231F"/>
</linearGradient>
<linearGradient id="paint16_linear_1_134" x1="127.214" y1="30.1426" x2="127.214" y2="0" gradientUnits="userSpaceOnUse">
<stop stop-color="#5C5C5B"/>
<stop offset="0.08" stop-color="#565554"/>
<stop offset="0.45" stop-color="#3A3A37"/>
<stop offset="0.77" stop-color="#2A2925"/>
<stop offset="1" stop-color="#24231F"/>
</linearGradient>
<linearGradient id="paint17_linear_1_134" x1="17.2449" y1="37.4276" x2="36.4566" y2="63.2179" gradientUnits="userSpaceOnUse">
<stop stop-color="white"/>
<stop offset="0.11" stop-color="#D8E8F4"/>
<stop offset="0.34" stop-color="#8CBCDD"/>
<stop offset="0.54" stop-color="#5098CC"/>
<stop offset="0.71" stop-color="#257FBF"/>
<stop offset="0.85" stop-color="#0A6FB7"/>
<stop offset="0.93" stop-color="#066BB5"/>
<stop offset="0.95" stop-color="#2878BD"/>
<stop offset="0.97" stop-color="#4081C2"/>
<stop offset="0.99" stop-color="#4F86C6"/>
<stop offset="1" stop-color="#5488C7"/>
</linearGradient>
<clipPath id="clip0_1_134">
<rect width="129" height="127" fill="white"/>
</clipPath>
</defs>
</svg>
