<svg width="176" height="48" viewBox="0 0 176 48" fill="none" xmlns="http://www.w3.org/2000/svg">
<g id="&#208;&#160;&#208;&#181;&#209;&#129;&#209;&#131;&#209;&#128;&#209;&#129; 1 3" clip-path="url(#clip0_1_181)">
<g id="&#208;&#161;&#208;&#187;&#208;&#190;&#208;&#185; 2">
<g id="Laag 1 kopie">
<path id="Vector" fill-rule="evenodd" clip-rule="evenodd" d="M0.188199 0.0316506H25.5229C33.8179 0.0316506 42.8626 -0.43403 48.4936 2.17315C58.2242 6.67473 59.3409 21.1805 50.2898 26.7814C44.6301 30.2914 35.7321 29.8131 26.5853 29.8131H-3.32259e-05V0.567025C-3.32259e-05 0.316761 -0.0223658 0.0633295 0.188199 0.0316506ZM19.4038 22.1436C26.7417 22.2069 33.9838 22.9387 35.9235 17.6864C37.3018 13.9609 35.4641 9.925 32.3344 8.59131C29.0323 7.1816 24.0586 8.5533 19.5825 8.05594C19.1645 12.396 19.5218 17.5058 19.4038 22.1436Z" fill="#254F9C"/>
<path id="Vector_2" fill-rule="evenodd" clip-rule="evenodd" d="M74.894 0.0316772H102.73C108.422 9.95354 114.853 20.0781 120.149 29.8099H82.0787C81.9925 28.6853 83.3963 27.2439 84.2258 25.8881C85.0968 24.4783 85.754 22.85 86.7398 21.7888H97.1564C95.1815 17.151 91.6306 12.5354 89.0752 7.87856C84.2673 14.9335 80.0975 22.622 75.4268 29.8131H57.1076C56.9928 28.7423 58.1477 27.6969 58.9038 26.4234C63.9255 17.9937 69.4959 8.27138 74.894 0.0316772Z" fill="#254F9C"/>
<path id="Vector_3" fill-rule="evenodd" clip-rule="evenodd" d="M124.82 0.0316772H175.821V8.76874H144.556C144.138 10.1975 144.495 12.396 144.377 14.1193H175.47V22.1436H144.393V29.8131H124.638V0.567052C124.622 0.316788 124.61 0.0633562 124.82 0.0316772Z" fill="#254F9C"/>
<path id="Vector_4" fill-rule="evenodd" clip-rule="evenodd" d="M19.5825 8.05598C24.049 8.55017 29.0196 7.18164 32.344 8.59135C35.4737 9.92504 37.3114 13.9768 35.9332 17.6864C33.9838 22.9388 26.7289 22.207 19.4038 22.1436C19.5219 17.5058 19.1646 12.396 19.5825 8.05598Z" fill="white"/>
<path id="Vector_5" fill-rule="evenodd" clip-rule="evenodd" d="M0.188229 36.4087H176V48H-2.7084e-06V36.944C-2.7084e-06 36.6906 -0.0223353 36.4308 0.188229 36.4087Z" fill="#E52825"/>
</g>
</g>
</g>
<defs>
<clipPath id="clip0_1_181">
<rect width="176" height="48" fill="white"/>
</clipPath>
</defs>
</svg>
